  0
SECTION
  2
HEADER
  9
$ACADVER
  1
AC1006
  9
$EXTMIN
 10
0.000000
 20
0.000000
 30
0.000000
  9
$EXTMAX
 10
512.000000
 20
512.000000
 30
0.000000
  0
ENDSEC
  0
SECTION
  2
ENTITIES
  0
POLYLINE
  8
0
 66
1
 70
1
  0
VERTEX
  8
0
 10
6.000000
 20
255.500000
 42
0.000000
  0
VERTEX
  8
0
 10
6.000000
 20
137.000000
 42
0.000000
  0
VERTEX
  8
0
 10
176.979712
 20
137.000000
 42
0.000000
  0
VERTEX
  8
0
 10
347.959423
 20
137.000000
 42
0.000000
  0
VERTEX
  8
0
 10
348.251140
 20
157.750000
 42
0.000000
  0
VERTEX
  8
0
 10
348.542856
 20
178.500000
 42
0.000000
  0
VERTEX
  8
0
 10
348.771428
 20
157.750000
 42
0.000000
  0
VERTEX
  8
0
 10
349.000000
 20
137.000000
 42
0.000000
  0
VERTEX
  8
0
 10
427.500000
 20
137.000000
 42
0.000000
  0
VERTEX
  8
0
 10
506.000000
 20
137.000000
 42
0.000000
  0
VERTEX
  8
0
 10
506.000000
 20
255.500000
 42
0.000000
  0
VERTEX
  8
0
 10
506.000000
 20
374.000000
 42
0.000000
  0
VERTEX
  8
0
 10
439.000000
 20
374.000000
 42
0.000000
  0
VERTEX
  8
0
 10
372.000000
 20
374.000000
 42
0.000000
  0
VERTEX
  8
0
 10
372.000000
 20
329.000000
 42
0.000000
  0
VERTEX
  8
0
 10
372.000000
 20
284.000000
 42
0.000000
  0
VERTEX
  8
0
 10
362.000000
 20
284.000000
 42
0.000000
  0
VERTEX
  8
0
 10
352.000000
 20
284.000000
 42
0.000000
  0
VERTEX
  8
0
 10
352.000000
 20
329.000000
 42
0.000000
  0
VERTEX
  8
0
 10
352.000000
 20
374.000000
 42
0.000000
  0
VERTEX
  8
0
 10
179.000000
 20
374.000000
 42
0.000000
  0
VERTEX
  8
0
 10
6.000000
 20
374.000000
 42
0.000000
  0
SEQEND
  0
POLYLINE
  8
0
 66
1
 70
1
  0
VERTEX
  8
0
 10
274.499740
 20
265.926003
 42
0.000000
  0
VERTEX
  8
0
 10
280.950458
 20
261.852006
 42
0.000000
  0
VERTEX
  8
0
 10
278.747956
 20
258.872963
 42
0.081647
  0
VERTEX
  8
0
 10
276.914823
 20
255.297063
 42
0.095561
  0
VERTEX
  8
0
 10
276.458156
 20
251.517018
 42
0.099014
  0
VERTEX
  8
0
 10
277.438495
 20
247.942869
 42
0.094403
  0
VERTEX
  8
0
 10
279.728505
 20
244.951273
 42
0.097479
  0
VERTEX
  8
0
 10
284.478415
 20
242.137063
 42
0.092845
  0
VERTEX
  8
0
 10
290.024969
 20
241.268313
 42
0.088597
  0
VERTEX
  8
0
 10
295.728027
 20
242.463175
 42
0.079227
  0
VERTEX
  8
0
 10
300.915918
 20
245.582704
 42
-0.021026
  0
VERTEX
  8
0
 10
302.594682
 20
246.878784
 42
-0.086644
  0
VERTEX
  8
0
 10
303.750356
 20
247.426470
 42
-0.124601
  0
VERTEX
  8
0
 10
304.795789
 20
247.449240
 42
-0.066410
  0
VERTEX
  8
0
 10
306.014621
 20
246.992175
 42
0.000000
  0
VERTEX
  8
0
 10
308.107273
 20
245.872222
 42
0.000000
  0
VERTEX
  8
0
 10
305.728003
 20
244.000687
 42
-0.048614
  0
VERTEX
  8
0
 10
299.077095
 20
239.743618
 42
-0.048540
  0
VERTEX
  8
0
 10
291.726048
 20
236.848270
 42
-0.051044
  0
VERTEX
  8
0
 10
284.348987
 20
235.534761
 42
-0.069838
  0
VERTEX
  8
0
 10
277.624859
 20
235.974079
 42
-0.047208
  0
VERTEX
  8
0
 10
272.688572
 20
237.495847
 42
-0.039868
  0
VERTEX
  8
0
 10
267.821881
 20
239.986823
 42
-0.041533
  0
VERTEX
  8
0
 10
263.689443
 20
243.036637
 42
-0.076264
  0
VERTEX
  8
0
 10
261.001614
 20
246.229323
 42
-0.081107
  0
VERTEX
  8
0
 10
259.589024
 20
249.708669
 42
-0.050009
  0
VERTEX
  8
0
 10
259.041935
 20
254.102837
 42
-0.049580
  0
VERTEX
  8
0
 10
259.378726
 20
258.576023
 42
-0.073535
  0
VERTEX
  8
0
 10
260.616973
 20
262.299660
 42
-0.031514
  0
VERTEX
  8
0
 10
262.181337
 20
264.964427
 42
-0.028355
  0
VERTEX
  8
0
 10
264.120019
 20
267.511735
 42
-0.024785
  0
VERTEX
  8
0
 10
266.023843
 20
269.527674
 42
-0.193470
  0
VERTEX
  8
0
 10
267.198825
 20
270.000000
 42
-0.123307
  0
VERTEX
  8
0
 10
267.760302
 20
269.859395
 42
-0.004556
  0
VERTEX
  8
0
 10
269.694175
 20
268.803263
 42
-0.008043
  0
VERTEX
  8
0
 10
271.966426
 20
267.486949
 42
-0.005539
  0
SEQEND
  0
POLYLINE
  8
0
 66
1
 70
1
  0
VERTEX
  8
0
 10
379.976490
 20
247.872737
 42
-0.016416
  0
VERTEX
  8
0
 10
405.990547
 20
242.646235
 42
-0.023736
  0
VERTEX
  8
0
 10
428.533548
 20
236.198911
 42
-0.026904
  0
VERTEX
  8
0
 10
447.828992
 20
228.495996
 42
-0.037871
  0
VERTEX
  8
0
 10
464.000000
 20
219.464913
 42
-0.010945
  0
VERTEX
  8
0
 10
466.708555
 20
217.584245
 42
-0.009434
  0
VERTEX
  8
0
 10
469.471875
 20
215.493677
 42
-0.009536
  0
VERTEX
  8
0
 10
471.906687
 20
213.502027
 42
-0.026976
  0
VERTEX
  8
0
 10
473.500000
 20
211.991823
 42
0.000000
  0
VERTEX
  8
0
 10
476.500000
 20
208.824226
 42
0.000000
  0
VERTEX
  8
0
 10
472.000000
 20
209.427049
 42
0.011723
  0
VERTEX
  8
0
 10
464.650170
 20
210.236744
 42
0.001426
  0
VERTEX
  8
0
 10
448.477013
 20
211.589126
 42
0.001803
  0
VERTEX
  8
0
 10
430.437612
 20
212.980290
 42
0.002182
  0
VERTEX
  8
0
 10
413.500000
 20
214.150762
 42
0.012028
  0
VERTEX
  8
0
 10
389.068505
 20
215.142662
 42
0.004144
  0
VERTEX
  8
0
 10
353.710202
 20
215.433809
 42
0.003700
  0
VERTEX
  8
0
 10
319.033384
 20
215.175306
 42
0.019896
  0
VERTEX
  8
0
 10
300.188747
 20
214.144586
 42
-0.003306
  0
VERTEX
  8
0
 10
294.669003
 20
213.658616
 42
-0.005274
  0
VERTEX
  8
0
 10
289.944502
 20
213.324248
 42
-0.001441
  0
VERTEX
  8
0
 10
285.844860
 20
213.089386
 42
-0.213075
  0
VERTEX
  8
0
 10
285.411374
 20
213.255293
 42
-0.476574
  0
VERTEX
  8
0
 10
285.514101
 20
214.238859
 42
-0.002565
  0
VERTEX
  8
0
 10
294.672697
 20
220.136878
 42
-0.009190
  0
VERTEX
  8
0
 10
304.264870
 20
225.999793
 42
-0.011784
  0
VERTEX
  8
0
 10
313.310776
 20
231.020360
 42
-0.006884
  0
VERTEX
  8
0
 10
322.034406
 20
235.444508
 42
-0.009213
  0
VERTEX
  8
0
 10
330.072950
 20
239.200992
 42
-0.008472
  0
VERTEX
  8
0
 10
338.750373
 20
242.888018
 42
-0.004639
  0
VERTEX
  8
0
 10
349.500000
 20
247.126339
 42
-0.014947
  0
VERTEX
  8
0
 10
356.763100
 20
249.666120
 42
-0.070621
  0
VERTEX
  8
0
 10
361.104305
 20
250.391192
 42
-0.044059
  0
VERTEX
  8
0
 10
366.288821
 20
250.061138
 42
-0.003451
  0
SEQEND
  0
POLYLINE
  8
0
 66
1
 70
1
  0
VERTEX
  8
0
 10
363.996815
 20
198.055909
 42
0.004851
  0
VERTEX
  8
0
 10
357.681755
 20
196.669163
 42
0.002462
  0
VERTEX
  8
0
 10
349.761126
 20
194.808015
 42
0.002445
  0
VERTEX
  8
0
 10
341.605403
 20
192.806978
 42
0.003650
  0
VERTEX
  8
0
 10
334.496815
 20
190.970717
 42
-0.003532
  0
VERTEX
  8
0
 10
320.403661
 20
187.326696
 42
-0.043540
  0
VERTEX
  8
0
 10
314.931007
 20
186.449500
 42
-0.083365
  0
VERTEX
  8
0
 10
310.659931
 20
186.854046
 42
-0.027407
  0
VERTEX
  8
0
 10
304.638715
 20
188.819928
 42
-0.025845
  0
VERTEX
  8
0
 10
299.021242
 20
191.342420
 42
-0.011389
  0
VERTEX
  8
0
 10
291.858382
 20
195.223146
 42
-0.004171
  0
VERTEX
  8
0
 10
284.693927
 20
199.398178
 42
-0.264636
  0
VERTEX
  8
0
 10
284.000000
 20
200.617458
 42
-0.412104
  0
VERTEX
  8
0
 10
284.155961
 20
200.774548
 42
-0.000066
  0
VERTEX
  8
0
 10
297.732813
 20
200.870602
 42
-0.001279
  0
VERTEX
  8
0
 10
312.823679
 20
200.936775
 42
-0.000767
  0
VERTEX
  8
0
 10
330.750000
 20
200.942038
 42
0.000000
  0
VERTEX
  8
0
 10
377.500000
 20
200.884076
 42
0.000000
  0
SEQEND
  0
POLYLINE
  8
0
 66
1
 70
1
  0
VERTEX
  8
0
 10
350.000000
 20
240.638820
 42
0.005055
  0
VERTEX
  8
0
 10
343.637472
 20
237.754737
 42
0.008878
  0
VERTEX
  8
0
 10
338.444068
 20
235.223889
 42
0.003521
  0
VERTEX
  8
0
 10
334.204023
 20
233.025898
 42
0.530463
  0
VERTEX
  8
0
 10
334.153095
 20
232.565053
 42
0.205312
  0
VERTEX
  8
0
 10
334.459535
 20
232.470118
 42
0.001667
  0
VERTEX
  8
0
 10
337.032860
 20
232.748874
 42
0.005617
  0
VERTEX
  8
0
 10
340.006130
 20
233.114845
 42
0.003541
  0
VERTEX
  8
0
 10
343.469409
 20
233.605675
 42
-0.014838
  0
VERTEX
  8
0
 10
354.241699
 20
234.884860
 42
-0.005546
  0
VERTEX
  8
0
 10
369.422410
 20
236.062636
 42
-0.003804
  0
VERTEX
  8
0
 10
384.400267
 20
236.943273
 42
-0.046146
  0
VERTEX
  8
0
 10
390.149112
 20
236.706826
 42
0.384056
  0
VERTEX
  8
0
 10
391.188699
 20
237.418107
 42
0.378377
  0
VERTEX
  8
0
 10
390.594901
 20
238.541972
 42
0.027336
  0
VERTEX
  8
0
 10
382.424469
 20
241.128691
 42
0.022414
  0
VERTEX
  8
0
 10
373.461792
 20
243.012164
 42
0.020779
  0
VERTEX
  8
0
 10
366.358828
 20
243.874106
 42
0.045036
  0
VERTEX
  8
0
 10
360.865137
 20
243.814752
 42
0.049122
  0
VERTEX
  8
0
 10
355.775474
 20
242.788435
 42
0.029593
  0
SEQEND
  0
ENDSEC
  0
EOF
